<?xml version="1.0" encoding="utf-8"?>
<!-- Generator: Adobe Illustrator 18.0.0, SVG Export Plug-In . SVG Version: 6.00 Build 0)  -->
<!DOCTYPE svg PUBLIC "-//W3C//DTD SVG 1.1//EN" "http://www.w3.org/Graphics/SVG/1.1/DTD/svg11.dtd">
<svg version="1.1" id="Layer_1" xmlns="http://www.w3.org/2000/svg" xmlns:xlink="http://www.w3.org/1999/xlink" x="0px" y="0px"
	 viewBox="0 0 259.4 90" enable-background="new 0 0 259.4 90" xml:space="preserve">
<g>
	<path fill="#008FBE" d="M43.5,85.3c-10.4,0-20.2-4.2-27.5-11.8C8.6,65.9,4.6,55.8,4.6,45c0-10.8,4-20.9,11.4-28.5
		C23.3,8.9,33.1,4.7,43.5,4.7c9.1,0,17.8,3.2,24.8,9.2l3.2-3.4C63.7,3.7,53.9,0,43.5,0C31.9,0,21,4.7,12.7,13.2C4.5,21.7,0,33,0,45
		c0,12,4.5,23.3,12.7,31.8C21,85.3,31.9,90,43.5,90l0,0c10.9,0,21.2-4.1,29.2-11.6L69.4,75C62.3,81.6,53.2,85.3,43.5,85.3z"/>
	<path fill="#008FBE" d="M43.5,67c-5.7,0-11-2.3-15-6.4c-4-4.1-6.2-9.7-6.2-15.5c0-5.9,2.2-11.4,6.2-15.5c4-4.2,9.3-6.4,15-6.4
		c4.4,0,8.6,1.4,12.1,4l3.3-3.4c-4.4-3.4-9.8-5.3-15.4-5.3c-6.9,0-13.4,2.8-18.3,7.8c-4.9,5-7.6,11.8-7.6,18.9s2.7,13.8,7.6,18.9
		c4.9,5,11.4,7.8,18.3,7.8c6.2,0,12-2.2,16.6-6.3l-3.2-3.4C53.1,65.2,48.4,67,43.5,67z"/>
	<path fill="#008FBE" d="M43.5,76.2c-8.1,0-15.6-3.2-21.3-9.1c-11.8-12.2-11.8-31.9,0-44.1c5.7-5.9,13.3-9.1,21.3-9.1
		c6.8,0,13.2,2.3,18.5,6.6l3.3-3.4c-6.2-5.1-13.8-7.9-21.8-7.9c-9.3,0-18,3.7-24.6,10.5c-13.5,14-13.5,36.8,0,50.8
		c6.6,6.8,15.3,10.5,24.6,10.5c8.5,0,16.6-3.2,22.9-9l-3.2-3.4C57.7,73.5,50.8,76.2,43.5,76.2z"/>
	<g>
		<g>
			<path fill="#515152" d="M31.5,44.7L31.5,44.7c0-7,5.1-12.4,12.1-12.4c4.7,0,7.7,2,9.7,4.9L48.5,41c-1.3-1.7-2.8-2.8-5-2.8
				c-3.2,0-5.5,2.8-5.5,6.3v0.1c0,3.6,2.3,6.3,5.5,6.3c2.4,0,3.8-1.2,5.2-2.9l4.8,3.5c-2.2,3.1-5.1,5.3-10.1,5.3
				C36.7,56.9,31.5,51.7,31.5,44.7z"/>
			<path fill="#515152" d="M54.8,32.7h11.7c2.9,0,4.9,0.7,6.2,2.1c0.9,0.9,1.5,2.2,1.5,3.8v0.1c0,2.7-1.5,4.4-3.5,5.3
				c2.8,0.9,4.5,2.6,4.5,5.8v0.1c0,4.1-3.2,6.5-8.7,6.5H54.8V32.7z M65,42.2c1.9,0,3-0.7,3-2.1v-0.1c0-1.3-1-2-2.9-2H61v4.2H65z
				 M65.9,51.2c1.9,0,3-0.8,3-2.2v-0.1c0-1.3-1-2.1-3.1-2.1H61v4.4H65.9z"/>
			<path fill="#515152" d="M84.2,32.6h6.1l9.7,23.9h-6.8l-1.7-4.2h-8.8l-1.6,4.2h-6.7L84.2,32.6z M89.7,47.1l-2.6-6.7l-2.6,6.7H89.7
				z"/>
			<path fill="#515152" d="M110.2,32.6h6.1l9.7,23.9h-6.8l-1.7-4.2h-8.8l-1.6,4.2h-6.7L110.2,32.6z M115.7,47.1l-2.6-6.7l-2.6,6.7
				H115.7z"/>
		</g>
	</g>
	<g>
		<rect x="135.4" y="6.7" fill="#919193" width="1.3" height="76.7"/>
	</g>
	<g>
		<g>
			<path fill="#515152" d="M145.9,31L145.9,31c0-2.1,1.5-3.9,3.7-3.9c1.3,0,2.1,0.5,2.8,1.2l-0.6,0.6c-0.6-0.6-1.3-1-2.3-1
				c-1.6,0-2.8,1.3-2.8,3.1v0c0,1.7,1.2,3.1,2.8,3.1c1,0,1.6-0.4,2.3-1.1l0.5,0.5c-0.8,0.8-1.6,1.3-2.9,1.3
				C147.4,34.9,145.9,33.2,145.9,31z"/>
			<path fill="#515152" d="M155,31L155,31c0-2.1,1.5-3.9,3.7-3.9c2.2,0,3.7,1.8,3.7,3.9v0c0,2.1-1.5,3.9-3.7,3.9
				C156.5,34.9,155,33.1,155,31z M161.5,31L161.5,31c0-1.7-1.2-3.1-2.9-3.1s-2.8,1.4-2.8,3.1v0c0,1.7,1.2,3.1,2.9,3.1
				C160.3,34.1,161.5,32.7,161.5,31z"/>
			<path fill="#515152" d="M165.8,27.2h0.8l2.6,4.1l2.6-4.1h0.8v7.5h-0.8v-6.1l-2.6,4h0l-2.6-4v6.1h-0.8V27.2z"/>
			<path fill="#515152" d="M176.4,27.2h0.8l2.6,4.1l2.6-4.1h0.8v7.5h-0.8v-6.1l-2.6,4h0l-2.6-4v6.1h-0.8V27.2z"/>
			<path fill="#515152" d="M186.9,31.6v-4.4h0.8v4.3c0,1.6,0.8,2.5,2.2,2.5c1.3,0,2.2-0.8,2.2-2.5v-4.4h0.8v4.3c0,2.2-1.2,3.3-3,3.3
				C188.1,34.8,186.9,33.7,186.9,31.6z"/>
			<path fill="#515152" d="M196.5,27.2h0.8l4.6,6v-6h0.8v7.5H202l-4.7-6.1v6.1h-0.8V27.2z"/>
			<path fill="#515152" d="M206.5,27.2h0.8v7.5h-0.8V27.2z"/>
			<path fill="#515152" d="M213,28h-2.4v-0.8h5.7V28h-2.4v6.7H213V28z"/>
			<path fill="#515152" d="M221.7,31.8l-3-4.5h1l2.4,3.7l2.5-3.7h1l-3,4.5v3h-0.8V31.8z"/>
			<path fill="#515152" d="M146.2,38.4h3.1c0.8,0,1.5,0.2,1.9,0.7c0.3,0.3,0.5,0.7,0.5,1.2v0c0,1-0.6,1.5-1.1,1.7
				c0.9,0.3,1.6,0.8,1.6,1.8v0c0,1.3-1,2-2.6,2h-3.2V38.4z M149.2,41.8c1,0,1.7-0.5,1.7-1.3v0c0-0.7-0.6-1.2-1.6-1.2H147v2.6H149.2z
				 M149.5,45.2c1.1,0,1.8-0.5,1.8-1.3v0c0-0.8-0.7-1.3-1.9-1.3H147v2.6H149.5z"/>
			<path fill="#515152" d="M155.3,38.4h3.1c0.9,0,1.6,0.3,2.1,0.7c0.4,0.4,0.6,0.9,0.6,1.5v0c0,1.2-0.8,2-2,2.2l2.2,3.1h-1l-2.1-2.9
				h-2.1v2.9h-0.8V38.4z M158.4,42.3c1.1,0,1.9-0.6,1.9-1.5v0c0-0.9-0.7-1.5-1.9-1.5h-2.2v3H158.4z"/>
			<path fill="#515152" d="M164.2,42.2L164.2,42.2c0-2.1,1.5-3.9,3.7-3.9c2.2,0,3.7,1.8,3.7,3.9v0c0,2.1-1.5,3.9-3.7,3.9
				C165.6,46.1,164.2,44.3,164.2,42.2z M170.7,42.2L170.7,42.2c0-1.7-1.2-3.1-2.9-3.1c-1.7,0-2.8,1.4-2.8,3.1v0
				c0,1.7,1.2,3.1,2.9,3.1C169.5,45.3,170.7,43.9,170.7,42.2z"/>
			<path fill="#515152" d="M177.2,38.4h0.8l3.3,7.5h-0.9l-0.8-2h-3.9l-0.9,2h-0.8L177.2,38.4z M179.2,43.2l-1.6-3.8l-1.7,3.8H179.2z
				"/>
			<path fill="#515152" d="M184.3,38.4h2.5c2.3,0,3.9,1.6,3.9,3.7v0c0,2.1-1.6,3.7-3.9,3.7h-2.5V38.4z M186.9,45.2
				c1.8,0,3-1.3,3-2.9v0c0-1.7-1.2-3-3-3h-1.7v5.9H186.9z"/>
			<path fill="#515152" d="M193.8,42.2L193.8,42.2c0-2.1,1.5-3.9,3.7-3.9c1.3,0,2.1,0.5,2.8,1.2l-0.6,0.6c-0.6-0.6-1.3-1-2.3-1
				c-1.6,0-2.8,1.3-2.8,3.1v0c0,1.7,1.2,3.1,2.8,3.1c1,0,1.6-0.4,2.3-1.1l0.5,0.5c-0.8,0.8-1.6,1.3-2.9,1.3
				C195.3,46.1,193.8,44.4,193.8,42.2z"/>
			<path fill="#515152" d="M206.1,38.4h0.8l3.3,7.5h-0.9l-0.8-2h-3.9l-0.9,2h-0.8L206.1,38.4z M208.1,43.2l-1.6-3.8l-1.7,3.8H208.1z
				"/>
			<path fill="#515152" d="M212.6,44.8l0.5-0.6c0.8,0.7,1.5,1.1,2.5,1.1c1,0,1.6-0.5,1.6-1.3v0c0-0.7-0.4-1.1-1.9-1.4
				c-1.7-0.4-2.4-0.9-2.4-2.2v0c0-1.2,1-2,2.4-2c1.1,0,1.8,0.3,2.5,0.9l-0.5,0.7c-0.7-0.6-1.3-0.8-2.1-0.8c-0.9,0-1.5,0.5-1.5,1.2v0
				c0,0.7,0.4,1.1,2,1.5c1.6,0.4,2.4,1,2.4,2.1v0c0,1.3-1,2.1-2.5,2.1C214.4,46,213.5,45.6,212.6,44.8z"/>
			<path fill="#515152" d="M223.1,39.2h-2.4v-0.8h5.7v0.8h-2.4v6.7h-0.8V39.2z"/>
			<path fill="#515152" d="M229.6,38.4h0.8v7.5h-0.8V38.4z"/>
			<path fill="#515152" d="M234.2,38.4h0.8l4.6,6v-6h0.8v7.5h-0.7l-4.7-6.1v6.1h-0.8V38.4z"/>
			<path fill="#515152" d="M243.7,42.2L243.7,42.2c0-2.1,1.5-3.9,3.6-3.9c1.2,0,2,0.4,2.7,1l-0.5,0.6c-0.6-0.5-1.2-0.9-2.2-0.9
				c-1.6,0-2.8,1.4-2.8,3.1v0c0,1.8,1.1,3.1,2.9,3.1c0.8,0,1.6-0.3,2.1-0.7v-1.9h-2.2v-0.8h3v3c-0.7,0.6-1.7,1.1-2.9,1.1
				C245.2,46.1,243.7,44.3,243.7,42.2z"/>
			<path fill="#515152" d="M148.9,49.6h0.8l3.3,7.5h-0.9l-0.8-2h-3.9l-0.9,2h-0.8L148.9,49.6z M150.9,54.4l-1.6-3.8l-1.7,3.8H150.9z
				"/>
			<path fill="#515152" d="M155.4,56l0.5-0.6c0.8,0.7,1.5,1.1,2.5,1.1c1,0,1.6-0.5,1.6-1.3v0c0-0.7-0.4-1.1-1.9-1.4
				c-1.7-0.4-2.4-0.9-2.4-2.2v0c0-1.2,1-2,2.4-2c1.1,0,1.8,0.3,2.5,0.9l-0.5,0.7c-0.7-0.6-1.3-0.8-2.1-0.8c-0.9,0-1.5,0.5-1.5,1.2v0
				c0,0.7,0.4,1.1,2,1.5c1.6,0.4,2.4,1,2.4,2.1v0c0,1.3-1,2.1-2.5,2.1C157.2,57.2,156.3,56.8,155.4,56z"/>
			<path fill="#515152" d="M163.6,56l0.5-0.6c0.8,0.7,1.5,1.1,2.5,1.1c1,0,1.6-0.5,1.6-1.3v0c0-0.7-0.4-1.1-1.9-1.4
				c-1.7-0.4-2.4-0.9-2.4-2.2v0c0-1.2,1-2,2.4-2c1.1,0,1.8,0.3,2.5,0.9l-0.5,0.7c-0.7-0.6-1.3-0.8-2.1-0.8c-0.9,0-1.5,0.5-1.5,1.2v0
				c0,0.7,0.4,1.1,2,1.5c1.6,0.4,2.4,1,2.4,2.1v0c0,1.3-1,2.1-2.5,2.1C165.4,57.2,164.5,56.8,163.6,56z"/>
			<path fill="#515152" d="M172,53.4L172,53.4c0-2.1,1.5-3.9,3.7-3.9c2.2,0,3.7,1.8,3.7,3.9v0c0,2.1-1.5,3.9-3.7,3.9
				C173.5,57.3,172,55.5,172,53.4z M178.6,53.4L178.6,53.4c0-1.7-1.2-3.1-2.9-3.1c-1.7,0-2.8,1.4-2.8,3.1v0c0,1.7,1.2,3.1,2.9,3.1
				C177.4,56.5,178.6,55.1,178.6,53.4z"/>
			<path fill="#515152" d="M182.5,53.4L182.5,53.4c0-2.1,1.5-3.9,3.7-3.9c1.3,0,2.1,0.5,2.8,1.2l-0.6,0.6c-0.6-0.6-1.3-1-2.3-1
				c-1.6,0-2.8,1.3-2.8,3.1v0c0,1.7,1.2,3.1,2.8,3.1c1,0,1.6-0.4,2.3-1.1l0.5,0.5c-0.8,0.8-1.6,1.3-2.9,1.3
				C184,57.3,182.5,55.6,182.5,53.4z"/>
			<path fill="#515152" d="M192.2,49.6h0.8v7.5h-0.8V49.6z"/>
			<path fill="#515152" d="M199.5,49.6h0.8l3.3,7.5h-0.9l-0.8-2h-3.9l-0.9,2h-0.8L199.5,49.6z M201.5,54.4l-1.6-3.8l-1.7,3.8H201.5z
				"/>
			<path fill="#515152" d="M207.6,50.4h-2.4v-0.8h5.7v0.8h-2.4v6.7h-0.8V50.4z"/>
			<path fill="#515152" d="M214.1,49.6h0.8v7.5h-0.8V49.6z"/>
			<path fill="#515152" d="M218.4,53.4L218.4,53.4c0-2.1,1.5-3.9,3.7-3.9c2.2,0,3.7,1.8,3.7,3.9v0c0,2.1-1.5,3.9-3.7,3.9
				C219.9,57.3,218.4,55.5,218.4,53.4z M224.9,53.4L224.9,53.4c0-1.7-1.2-3.1-2.9-3.1s-2.8,1.4-2.8,3.1v0c0,1.7,1.2,3.1,2.9,3.1
				C223.7,56.5,224.9,55.1,224.9,53.4z"/>
			<path fill="#515152" d="M229.2,49.6h0.8l4.6,6v-6h0.8v7.5h-0.7L230,51v6.1h-0.8V49.6z"/>
			<path fill="#515152" d="M243.4,53.4L243.4,53.4c0-2.1,1.5-3.9,3.7-3.9c2.2,0,3.7,1.8,3.7,3.9v0c0,2.1-1.5,3.9-3.7,3.9
				C244.9,57.3,243.4,55.5,243.4,53.4z M250,53.4L250,53.4c0-1.7-1.2-3.1-2.9-3.1c-1.7,0-2.8,1.4-2.8,3.1v0c0,1.7,1.2,3.1,2.9,3.1
				C248.8,56.5,250,55.1,250,53.4z"/>
			<path fill="#515152" d="M254.2,49.6h5.2v0.8H255v2.7h3.9v0.8H255v3.3h-0.8V49.6z"/>
			<path fill="#515152" d="M148.9,60.8h0.8l3.3,7.5h-0.9l-0.8-2h-3.9l-0.9,2h-0.8L148.9,60.8z M150.9,65.6l-1.6-3.8l-1.7,3.8H150.9z
				"/>
			<path fill="#515152" d="M155.7,65.2v-4.4h0.8v4.3c0,1.6,0.8,2.5,2.2,2.5c1.3,0,2.2-0.8,2.2-2.5v-4.4h0.8v4.3c0,2.2-1.2,3.3-3,3.3
				C156.9,68.5,155.7,67.3,155.7,65.2z"/>
			<path fill="#515152" d="M164.8,67.3l0.5-0.6c0.8,0.7,1.5,1.1,2.5,1.1c1,0,1.6-0.5,1.6-1.3v0c0-0.7-0.4-1.1-1.9-1.4
				c-1.7-0.4-2.4-0.9-2.4-2.2v0c0-1.2,1-2,2.4-2c1.1,0,1.8,0.3,2.5,0.9l-0.5,0.7c-0.7-0.6-1.3-0.8-2.1-0.8c-0.9,0-1.5,0.5-1.5,1.2v0
				c0,0.7,0.4,1.1,2,1.5c1.6,0.4,2.4,1,2.4,2.1v0c0,1.3-1,2.1-2.5,2.1C166.6,68.5,165.7,68.1,164.8,67.3z"/>
			<path fill="#515152" d="M175.3,61.6h-2.4v-0.8h5.7v0.8h-2.4v6.7h-0.8V61.6z"/>
			<path fill="#515152" d="M181.8,60.8h3.1c0.9,0,1.6,0.3,2.1,0.7c0.4,0.4,0.6,0.9,0.6,1.5v0c0,1.2-0.8,2-2,2.2l2.2,3.1h-1l-2.1-2.9
				h-2.1v2.9h-0.8V60.8z M184.8,64.7c1.1,0,1.9-0.6,1.9-1.5v0c0-0.9-0.7-1.5-1.9-1.5h-2.2v3H184.8z"/>
			<path fill="#515152" d="M193.6,60.8h0.8l3.3,7.5h-0.9l-0.8-2H192l-0.9,2h-0.8L193.6,60.8z M195.6,65.6l-1.6-3.8l-1.7,3.8H195.6z"
				/>
			<path fill="#515152" d="M200.8,60.8h0.8v6.7h4.1v0.8h-4.9V60.8z"/>
			<path fill="#515152" d="M208.9,60.8h0.8v7.5h-0.8V60.8z"/>
			<path fill="#515152" d="M216.2,60.8h0.8l3.3,7.5h-0.9l-0.8-2h-3.9l-0.9,2h-0.8L216.2,60.8z M218.2,65.6l-1.6-3.8l-1.7,3.8H218.2z
				"/>
		</g>
	</g>
</g>
</svg>
